<?xml version="1.0" encoding="iso-8859-1"?>
<!-- Uploaded to: SVG Repo, www.svgrepo.com, Generator: SVG Repo Mixer Tools -->
<!DOCTYPE svg PUBLIC "-//W3C//DTD SVG 1.1//EN" "http://www.w3.org/Graphics/SVG/1.1/DTD/svg11.dtd">
<svg fill="#000000" version="1.1" id="Capa_1" xmlns="http://www.w3.org/2000/svg" xmlns:xlink="http://www.w3.org/1999/xlink" 
	 width="800px" height="800px" viewBox="0 0 360.466 360.467"
	 xml:space="preserve">
<g>
	<path d="M330.871,0.001h-84.865c-8.774,0-15.912,7.138-15.912,15.913v180.127c0,26.322-21.416,47.736-47.737,47.736h-4.243
		c-26.322,0-47.737-21.414-47.737-47.736V15.913C130.376,7.139,123.238,0,114.463,0H29.597c-8.774,0-15.912,7.138-15.912,15.913
		V196.04c0,90.666,73.762,164.427,164.427,164.427h4.243c90.666,0,164.427-73.762,164.427-164.427V15.913
		C346.783,7.139,339.645,0.001,330.871,0.001z M99.046,37.942v65.771H45.297V37.942H99.046z"/>
</g>
</svg>